<svg
    xmlns="http://www.w3.org/2000/svg"
    xml:space="preserve"
    viewBox="0 0 2048 2048" 
    style="
        shape-rendering: geometricPrecision;
        text-rendering: geometricPrecision;
        image-rendering: optimizeQuality;
        fill-rule: evenodd;
        clip-rule: evenodd;
    "
>
    <g id="Layer_x0020_1">
        <path
            style="fill: #aaa"
            d="M1825.03 739.896c2.332 570.664-211.994 762.243-416.594 763.078-89.707.366-177.24-36.448-244.203-94.57-67.367-58.475-114.449-138.905-122.74-225.324-18.72-195.084 158.739-418.207 748.661-474.809l34.733-3.332.143 34.957zm-416.844 699.327c169.55-.692 346.89-168.315 352.921-663.811-514.276 56.693-671.514 241.156-656.112 401.668 6.66 69.417 45.412 134.832 100.989 183.073 55.98 48.59 128.509 79.37 202.203 79.069z"
        />
        <path
            style="fill: #aaa"
            d="M1519.14 1078.18c13.807-10.908 16.157-30.944 5.25-44.75-10.908-13.808-30.944-16.158-44.75-5.25-124.866 98.814-234.996 205.885-315.706 329.434-81.703 125.07-133.315 266.733-139.808 433.261-.621 17.604 13.146 32.38 30.75 33.001 17.605.622 32.38-13.145 33.001-30.75 5.99-153.573 53.819-284.574 129.556-400.51 76.734-117.46 182.06-219.75 301.707-314.435zM260.23 512.605c-6.129 495.42 167 667.335 336.446 672.195 73.637 2.112 146.876-26.867 204.019-74.054 56.76-46.87 97.116-111.308 105.477-180.512 19.34-160.068-133.29-348.32-645.942-417.63zm334.695 735.947c-204.54-5.867-414.114-202.654-397.751-773.071l1.006-35.057 34.62 4.182c588.44 71.102 760.385 298.545 736.873 493.13-10.418 86.217-59.457 165.473-128.228 222.26-68.385 56.472-156.821 91.13-246.52 88.556z"
        />
        <path
            style="fill: #aaa"
            d="M550.251 832.625c-17.327-3.451-34.174 7.798-37.625 25.124-3.451 17.327 7.797 34.174 25.124 37.626 130.191 26.037 236.88 136.588 316.98 278.228 105.157 185.952 163.623 423.552 170.456 598.77.621 17.604 15.397 31.37 33.001 30.75 17.605-.622 31.372-15.397 30.75-33.002-7.169-183.854-68.467-433.077-178.708-628.019C821.686 985.53 701.1 862.794 550.251 832.625z"
        />
    </g>
</svg>
